<?xml version="1.0" encoding="utf-8"?>
<!-- Generator: Adobe Illustrator 26.1.0, SVG Export Plug-In . SVG Version: 6.00 Build 0)  -->
<svg version="1.1" id="Слой_1" xmlns="http://www.w3.org/2000/svg" xmlns:xlink="http://www.w3.org/1999/xlink" x="0px" y="0px"
	 viewBox="0 0 2497 592" style="enable-background:new 0 0 2497 592;" xml:space="preserve">
<style type="text/css">
	.st0{fill:#FFFFFF;}
</style>
<g>
	<path class="st0" d="M1008.64,314.29c-1.3,28.38-8.9,53.44-22.8,75.18c-13.9,21.75-33.41,38.6-58.52,50.54
		c-25.12,11.95-53.8,17.92-86.05,17.92c-53.2,0-95.08-17.45-125.67-52.36c-30.58-34.9-45.87-84.18-45.87-147.84v-20.16
		c0-39.94,6.9-74.9,20.71-104.86c13.81-29.96,33.68-53.1,59.64-69.44c25.95-16.33,55.97-24.5,90.08-24.5
		c49.12,0,88.59,13.02,118.44,39.06c29.84,26.04,46.8,61.93,50.88,107.66h-97.31c-0.74-24.82-6.95-42.65-18.63-53.48
		c-11.68-10.82-29.47-16.24-53.38-16.24c-24.28,0-42.08,9.15-53.38,27.44c-11.31,18.3-17.24,47.51-17.79,87.64v28.84
		c0,43.5,5.42,74.58,16.26,93.24c10.84,18.67,29.51,28,56.02,28c22.42,0,39.57-5.32,51.43-15.96
		c11.86-10.64,18.16-27.53,18.91-50.68H1008.64z"/>
	<path class="st0" d="M1149.32,452.33h-93.97V22.26h93.97V452.33z"/>
	<path class="st0" d="M1352.56,457.93c-46.15,0-83.5-13.86-112.04-41.58c-28.55-27.72-42.82-63.79-42.82-108.22v-7.84
		c0-30.98,5.7-58.33,17.1-82.04c11.4-23.7,28.03-42.04,49.91-55.02c21.87-12.97,47.82-19.46,77.85-19.46
		c42.26,0,75.62,13.21,100.09,39.62c24.47,26.42,36.7,63.24,36.7,110.46v36.68h-186.28c3.34,16.99,10.66,30.34,21.96,40.04
		c11.3,9.71,25.95,14.56,43.93,14.56c29.65,0,52.82-10.45,69.51-31.36l42.82,50.96c-11.68,16.24-28.22,29.17-49.63,38.78
		C1400.24,453.12,1377.2,457.93,1352.56,457.93z M1341.99,216.58c-27.43,0-43.75,18.3-48.93,54.88h94.53v-7.28
		c0.37-15.12-3.43-26.83-11.4-35.14C1368.22,220.73,1356.82,216.58,1341.99,216.58z"/>
	<path class="st0" d="M1686.47,452.33c-3.34-6.16-6.3-15.21-8.9-27.16c-17.24,21.84-41.33,32.76-72.29,32.76
		c-28.36,0-52.46-8.63-72.29-25.9c-19.84-17.26-29.75-38.96-29.75-65.1c0-32.85,12.05-57.68,36.14-74.48
		c24.09-16.8,59.12-25.2,105.09-25.2h28.92v-16.04c0-27.95-11.96-41.92-35.87-41.92c-22.24,0-33.36,11.07-33.36,33.2h-93.69
		c0-29.27,12.37-53.04,37.12-71.31c24.74-18.27,56.3-27.41,94.67-27.41c38.37,0,68.67,9.43,90.91,28.28
		c22.24,18.86,33.64,44.71,34.2,77.56v134.12c0.37,27.82,4.63,49.1,12.79,63.84v4.76H1686.47z M1627.8,390.73
		c11.68,0,21.36-2.52,29.05-7.56c7.69-5.04,13.21-10.73,16.54-17.08v-48.44h-27.25c-32.62,0-48.93,14.75-48.93,44.24
		c0,8.59,2.87,15.54,8.62,20.86C1611.58,388.07,1618.91,390.73,1627.8,390.73z"/>
	<path class="st0" d="M1905.27,149.38l3.06,35.56c20.76-27.44,49.39-41.16,85.91-41.16c31.32,0,54.72,9.43,70.2,28.28
		c15.47,18.86,23.49,47.23,24.05,85.12v195.16h-93.97V261.1c0-15.3-3.06-26.55-9.17-33.74c-6.12-7.18-17.24-10.78-33.36-10.78
		c-18.35,0-31.97,7.28-40.87,21.84v213.92h-93.7V149.38H1905.27z"/>
	<path class="st0" d="M2260.59,320.17l50.05-170.8H2411l-122.61,353.63l-5.28,12.88c-17.42,39.2-48.19,58.8-92.3,58.8
		c-12.23,0-25.12-1.86-38.65-5.58v-67.22h12.23c13.16,0,23.21-1.92,30.17-5.74c6.95-3.83,12.09-10.7,15.43-20.6l7.51-20.17
		l-104.54-306h100.09L2260.59,320.17z"/>
</g>
<g>
	<path class="st0" d="M156.51,247.3h89.93v244.7h-89.93V247.3z M425.79,159.46c13.59,10.46,24.22,23.19,31.9,38.17
		c7.66,15,11.5,31.55,11.5,49.67v14.64l-128.63-48.1h-88.89c6.27-19.51,16.89-35.9,31.9-49.15c14.98-13.23,32.24-21.96,51.76-26.14
		v-48.1h-33.46V46.52c12.55,0,23.69,0,33.46,0c9.75,0,20.39,0,31.9,0c11.5,0,22.3,0,32.42,0c10.1,0,18.3,0,24.57,0
		c12.55,0,24.57,1.93,36.08,5.75c11.5,3.84,21.78,9.25,30.85,16.21l-32.42,32.42c-10.46-6.96-21.96-10.46-34.51-10.46H380.3v48.1
		C397.03,142.04,412.19,149,425.79,159.46z M611.93,394.23c8.71,8.73,13.07,19,13.07,30.85l-177.78,66.93l-156.86-43.92V247.3h43.92
		l162.09,59.61c11.85,4.89,17.78,13.25,17.78,25.1c0,7.68-2.61,13.95-7.84,18.82c-5.23,4.89-11.68,7.32-19.35,7.32h-62.74
		l-38.69-14.64l-7.32,20.91l46.01,16.73h156.86C592.92,381.16,603.2,385.52,611.93,394.23z M499.51,143.78l-30.33,13.59l30.33,14.64
		l13.59,30.33l14.64-30.33l30.33-14.64l-30.33-13.59l-14.64-30.33L499.51,143.78z M549.18,301.16c-8.73-8.71-13.07-19.35-13.07-31.9
		c0-6.27,2.25-14.28,6.8-24.05c4.53-9.75,9.75-19.69,15.69-29.8c5.91-10.1,13.41-21.78,22.48-35.03
		c9.05,13.25,16.37,24.93,21.96,35.03c5.57,10.11,10.62,20.05,15.16,29.8c4.53,9.77,6.8,17.78,6.8,24.05
		c0,12.55-4.36,23.19-13.07,31.9c-8.73,8.73-19,13.07-30.85,13.07C568.53,314.23,557.89,309.89,549.18,301.16z"/>
</g>
</svg>
